# AST/ASF file generated using VICON BodyLanguage
# -----------------------------------------------
:version 1.10
:name VICON
:units
  mass 1.0
  length 0.45
  angle deg
:documentation
   .ast/.asf automatically generated from VICON data using
   VICON BodyBuilder and BodyLanguage model FoxedUp or BRILLIANT.MOD
:root
   order TX TY TZ RX RY RZ
   axis XYZ
   position 0 0 0  
   orientation 0 0 0 
:bonedata
  begin
     id 1 
     name lhipjoint
     direction 0.535335 -0.74333 0.401095 
     length 2.04549 
     axis 0 0 0  XYZ
  end
  begin
     id 2 
     name lfemur
     direction 0.34202 -0.939693 0  
     length 6.95643  
     axis 0 0 20  XYZ
    dof rx ry rz
    limits (-160.0 20.0)
           (-70.0 70.0)
           (-60.0 70.0)
  end
  begin
     id 3 
     name ltibia
     direction 0.34192 -0.939729 0   
     length 5.55969   
     axis 0 0 20   XYZ
    dof rx
    limits (-10.0 170.0)
  end
  begin
     id 4 
     name lfoot
     direction 0.216943 -0.596046 0.773088   
     length 2.27918   
     axis -90 7.62852e-016 20   XYZ
    dof rx rz
    limits (-45.0 90.0)
           (-70.0 20.0)
  end
  begin
     id 5 
     name ltoes
     direction 1.53519e-011 -4.21748e-011 1   
     length 1.05562   
     axis -90 7.62852e-016 20   XYZ
    dof rx
    limits (-90.0 20.0)
  end
  begin
     id 6 
     name rhipjoint
     direction -0.576368 -0.719173 0.38806   
     length 2.1142  
     axis 0 0 0  XYZ 
  end
  begin
     id 7 
     name rfemur
     direction -0.34202 -0.939693 0   
     length 7.07928   
     axis 0 0 -20   XYZ
    dof rx ry rz
    limits (-160.0 20.0)
           (-70.0 70.0)
           (-70.0 60.0)
  end
  begin
     id 8 
     name rtibia
     direction -0.34202 -0.939693 0   
     length 5.79974   
     axis 0 0 -20   XYZ
    dof rx
    limits (-10.0 170.0)
 end
 begin
     id 9 
     name rfoot
     direction -0.189288 -0.520065 0.832888   
     length 2.42173  
     axis -90 -7.62852e-016 -20   XYZ
    dof rx rz
    limits (-45.0 90.0)
           (-20.0 70.0)
  end
  begin
     id 10 
     name rtoes
     direction -1.53574e-011 -4.21658e-011 1   
     length 1.14469   
     axis -90 -7.62852e-016 -20   XYZ
    dof rx
    limits (-90.0 20.0)
  end
  begin
     id 11 
     name lowerback
     direction -0.00135702 0.993803 0.111144   
     length 1.91308   
     axis 0 0 0   XYZ
    dof rx ry rz
    limits (-20.0 45.0)
           (-30.0 30.0)
           (-30.0 30.0)
  end
  begin
     id 12 
     name upperback
     direction -0.0056745 0.999813 0.0184631   
     length 1.9212   
     axis 0 0 0   XYZ
    dof rx ry rz
    limits (-20.0 45.0)
           (-30.0 30.0)
           (-30.0 30.0)
  end
  begin
     id 13 
     name thorax
     direction -0.00733434 0.999426 -0.0330788   
     length 1.94196   
     axis 0 0 0   XYZ
    dof rx ry rz
    limits (-20.0 45.0)
           (-30.0 30.0)
           (-30.0 30.0)
  end
  begin
     id 14 
     name lowerneck
     direction 0.0563074 0.996944 -0.0541571   
     length 2.34257   
     axis 0 0 0   XYZ
    dof rx ry rz
    limits (-20.0 45.0)
           (-30.0 30.0)
           (-30.0 30.0)
  end
  begin
     id 15 
     name upperneck
     direction -0.0544519 0.976166 -0.210085   
     length 2.32506   
     axis 0 0 0   XYZ
    dof rx ry rz
    limits (-20.0 45.0)
           (-30.0 30.0)
           (-30.0 30.0)
  end
  begin
     id 16
     name head
     direction -0.0226035 0.997615 -0.0652205  
     length 2.3648  
     axis 0 0 0   XYZ
    dof rx ry rz
    limits (-20.0 45.0)
           (-30.0 30.0)
           (-30.0 30.0)
  end
  begin
     id 17 
     name lclavicle
     direction 0.92109 0.381297 -0.0787716  
     length 4.0487  
     axis 0 0 0   XYZ
    dof ry rz
    limits (-20.0 10.0)
           (0.0 20.0)
  end
  begin
     id 18 
     name lhumerus
     direction 1 -4.48986e-011 3.56724e-027   
     length 4.94991   
     axis 180 -30 -90   XYZ
    dof rx ry rz
    limits (-60.0 90.0)
           (-90.0 90.0)
           (-90.0 90.0)
  end
  begin
     id 19
     name lradius
     direction 1 -4.48981e-011 8.62147e-027   
     length 2.7606   
     axis 180 -30 -90   XYZ
    dof rx
    limits (-10.0 170.0)
  end
  begin
     id 20
     name lwrist
     direction 1 -4.48989e-011 1.59799e-026   
     length 1.3803   
     axis -1.17785e-014 90 90   XYZ
    dof ry
    limits (-180.0 0.0)
 end
  begin
     id 21 
     name lhand
     direction 1 -4.48896e-011 3.19599e-026   
     length 0.843936   
     axis -2.03931e-014 90 90   XYZ
    dof rx rz
    limits (-90.0 90.0)
           (-45.0 45.0)
  end
  begin
     id 22 
     name lfingers
     direction 1 -4.48887e-011 6.39197e-026   
     length 0.680403   
     axis -4.07862e-014 90 90   XYZ
    dof rx
    limits (0.0 90.0)
  end
  begin
     id 23
     name lthumb
     direction 0.707107 -6.348e-011 0.707107   
     length 0.976926   
     axis -90 45 2.85299e-015   XYZ
    dof rx rz
    limits (-45.0 45.0)
           (-45.0 45.0)
  end
  begin
     id 24 
     name rclavicle
     direction -0.951104 0.307692 -0.026953   
     length 4.21801  
     axis 0 0 0   XYZ 
    dof ry rz
    limits (-10.0 20.0)
           (-20.0 0.0)
  end
  begin
     id 25 
     name rhumerus
     direction -1 -4.4896e-011 -1.8171e-018  
     length 4.32982   
     axis 180 30 90   XYZ
    dof rx ry rz
    limits (-90.0 60.0)
           (-90.0 90.0)
           (-90.0 90.0)
  end
  begin
     id 26 
     name rradius
     direction -1 -4.48959e-011 8.25165e-027   
     length 3.20057   
     axis 180 30 90   XYZ
    dof rx
    limits (-10.0 170.0)
  end
  begin
     id 27 
     name rwrist
     direction -1 -4.48997e-011 1.59799e-026   
     length 1.60029   
     axis -1.17785e-014 -90 -90   XYZ
    dof ry
    limits (-180.0 0.0)
  end
  begin
     id 28
     name rhand
     direction -1 -4.49023e-011 3.19599e-026   
     length 0.960433   
     axis -2.03931e-014 -90 -90   XYZ
    dof rx rz
    limits (-90.0 90.0)
           (-45.0 45.0)
  end
  begin
     id 29
     name rfingers
     direction -1 -4.48802e-011 6.39197e-026   
     length 0.774326   
     axis -4.07862e-014 -90 -90   XYZ
    dof rx
    limits (0.0 90.0)
  end
  begin
     id 30
     name rthumb
     direction -0.707107 -6.34876e-011 0.707107   
     length 1.11178   
     axis -90 -45 -2.85299e-015   XYZ
    dof rx rz
    limits (-45.0 45.0)
           (-45.0 45.0)
  end
:hierarchy
  begin
    root lhipjoint rhipjoint lowerback
    lhipjoint lfemur
    lfemur ltibia
    ltibia lfoot
    lfoot ltoes
    rhipjoint rfemur
    rfemur rtibia
    rtibia rfoot
    rfoot rtoes
    lowerback upperback
    upperback thorax
    thorax lowerneck lclavicle rclavicle
    lowerneck upperneck
    upperneck head
    lclavicle lhumerus
    lhumerus lradius
    lradius lwrist
    lwrist lhand lthumb
    lhand lfingers
    rclavicle rhumerus
    rhumerus rradius
    rradius rwrist
    rwrist rhand rthumb
    rhand rfingers
end

#!OML:ASF C:\KaitlinTest1\Natural Motions\Nikki\Session 2\Nikki.ASF
:FULLY-SPECIFIED
:DEGREES
728
root -18.8351 16.6259 5.06391 -154.139 85.7788 -164.292
lowerback -13.3675 -1.63489 -0.157453
upperback -3.99123 -1.9368 -0.586126
thorax 3.27685 -0.884653 -0.825894
lowerneck -1.77879 1.59104 8.5009
upperneck 27.1752 3.84632 -5.62269
head 9.02465 2.5375 -3.02298
rclavicle -1.13556e-014 2.78299e-015
rhumerus -42.6615 -22.2481 -79.3691
rradius 18.3363
rwrist 29.4048
rhand -36.0132 3.40211
rfingers 7.12502
rthumb -9.12258 -26.3806
lclavicle -1.13556e-014 2.78299e-015
lhumerus -42.4264 16.3728 80.1765
lradius 23.9783
lwrist -40.1675
lhand -32.886 3.58323
lfingers 7.12502
lthumb -6.10415 33.4753
rfemur -7.84671 -16.8894 21.1138
rtibia 11.2621
rfoot -10.9374 12.054
rtoes -5.56597e-014
lfemur -9.91787 12.0249 -17.8517
ltibia 9.59476
lfoot -2.20033 -16.7441
ltoes 7.95139e-015
729
root -18.8346 16.6267 5.06378 -154.158 85.7819 -164.313
lowerback -13.3804 -1.63335 -0.15687
upperback -3.98144 -1.93486 -0.590121
thorax 3.29394 -0.883759 -0.830642
lowerneck -1.804 1.58759 8.516
upperneck 27.1943 3.84253 -5.63806
head 9.03624 2.53565 -3.03126
rclavicle -1.00138e-014 -2.78299e-015
rhumerus -42.664 -22.3 -79.3452
rradius 18.353
rwrist 29.5686
rhand -35.9488 3.32138
rfingers 7.12502
rthumb -9.06044 -26.464
lclavicle -1.00138e-014 -2.78299e-015
lhumerus -42.4215 16.4219 80.1371
lradius 23.9764
lwrist -40.2837
lhand -32.8763 3.61715
lfingers 7.12502
lthumb -6.09478 33.5095
rfemur -7.86072 -16.8354 21.1029
rtibia 11.2747
rfoot -10.8955 12.0308
rtoes -2.3059e-014
lfemur -9.91994 12.0274 -17.8535
ltibia 9.59354
lfoot -2.19423 -16.7429
ltoes -5.56597e-014
730
root -18.8343 16.6267 5.06367 -154.073 85.7844 -164.241
lowerback -13.3906 -1.63405 -0.148013
upperback -3.98425 -1.93689 -0.5856
thorax 3.29635 -0.884641 -0.831479
lowerneck -1.79622 1.59164 8.51164
upperneck 27.1667 3.8492 -5.64931
head 9.02561 2.53644 -3.03369
rclavicle -1.83876e-014 -1.78906e-014
rhumerus -42.5997 -22.1111 -79.5229
rradius 18.3781
rwrist 29.0789
rhand -36.0179 3.26225
rfingers 7.12502
rthumb -9.1271 -26.5203
lclavicle -1.83876e-014 -1.78906e-014
lhumerus -42.4077 16.3603 80.1823
lradius 23.9661
lwrist -40.2263
lhand -32.8772 3.5849
lfingers 7.12502
lthumb -6.09569 33.4772
rfemur -7.84983 -16.8404 21.1191
rtibia 11.2301
rfoot -10.8899 12.0237
rtoes 8.66701e-014
lfemur -9.96317 12.0321 -17.8541
ltibia 9.65473
lfoot -2.22378 -16.7442
ltoes 5.40694e-014
731
root -18.8339 16.6281 5.06394 -154.116 85.7829 -164.279
lowerback -13.3775 -1.6246 -0.150131
upperback -3.98536 -1.92353 -0.601259
thorax 3.28779 -0.87809 -0.844091
lowerneck -1.80443 1.57708 8.55933
upperneck 27.1843 3.82627 -5.65666
head 9.03265 2.53017 -3.04656
rclavicle 7.45443e-015 -3.97569e-015
rhumerus -42.6153 -22.1441 -79.5499
rradius 18.3919
rwrist 29.0918
rhand -36.0529 3.26333
rfingers 7.12502
rthumb -9.16084 -26.5177
lclavicle 7.45443e-015 -3.97569e-015
lhumerus -42.3771 16.2656 80.2262
lradius 23.9509
lwrist -40.0743
lhand -32.9121 3.62101
lfingers 7.12502
lthumb -6.12938 33.5123
rfemur -7.82324 -16.8496 21.1177
rtibia 11.1832
rfoot -10.8925 12.0409
rtoes -2.8625e-014
lfemur -9.99004 12.0288 -17.8583
ltibia 9.68586
lfoot -2.23715 -16.7367
ltoes -1.59028e-014
732
root -18.8337 16.6285 5.06465 -153.72 85.7635 -163.905
lowerback -13.4061 -1.63269 -0.12732
upperback -3.98442 -1.93786 -0.57864
thorax 3.30409 -0.884976 -0.836471
lowerneck -1.81876 1.59136 8.54437
upperneck 27.1884 3.84917 -5.66593
head 9.03843 2.53822 -3.04517
rclavicle -7.97623e-015 -7.55382e-015
rhumerus -42.6123 -22.2611 -79.4305
rradius 18.3431
rwrist 29.4265
rhand -35.9886 3.30734
rfingers 7.12502
rthumb -9.09878 -26.4764
lclavicle -7.97623e-015 -7.55382e-015
lhumerus -42.3753 16.3161 80.2327
lradius 23.9516
lwrist -40.0631
lhand -32.9639 3.5552
lfingers 7.12502
lthumb -6.17939 33.4451
rfemur -7.82989 -16.8404 21.1621
rtibia 11.1444
rfoot -10.8746 12.0288
rtoes -3.02153e-014
lfemur -10.033 12.0257 -17.8227
ltibia 9.7267
lfoot -2.26841 -16.7013
ltoes 3.18055e-015
733
root -18.8327 16.6286 5.06428 -153.863 85.7753 -164.024
lowerback -13.3973 -1.63128 -0.130862
upperback -3.97247 -1.93592 -0.585769
thorax 3.3117 -0.884288 -0.841575
lowerneck -1.82086 1.59503 8.55036
upperneck 27.1831 3.85122 -5.66017
head 9.03721 2.53996 -3.04396
rclavicle -1.0138e-014 -8.74653e-015
rhumerus -42.6045 -22.1536 -79.5213
rradius 18.3981
rwrist 29.2466
rhand -35.9859 3.25555
rfingers 7.12502
rthumb -9.09616 -26.5283
lclavicle -1.0138e-014 -8.74653e-015
lhumerus -42.3635 16.3433 80.2166
lradius 23.9486
lwrist -40.0999
lhand -32.9395 3.56607
lfingers 7.12502
lthumb -6.15584 33.4566
rfemur -7.79338 -16.8007 21.1282
rtibia 11.1282
rfoot -10.8161 12.0064
rtoes -3.18055e-014
lfemur -10.008 12.031 -17.8332
ltibia 9.74244
lfoot -2.28522 -16.7129
ltoes -3.18055e-015
734
root -18.8353 16.6295 5.06515 -153.972 85.733 -164.189
lowerback -13.4283 -1.64771 -0.14807
upperback -3.97315 -1.95495 -0.579387
thorax 3.32841 -0.893442 -0.829153
lowerneck -1.85216 1.59442 8.55517
upperneck 27.172 3.84353 -5.65819
head 9.03858 2.53539 -3.04442
rclavicle 1.37658e-014 1.98785e-015
rhumerus -42.5504 -22.1382 -79.5694
rradius 18.4058
rwrist 29.2056
rhand -35.9852 3.30455
rfingers 7.12502
rthumb -9.09548 -26.4793
lclavicle 1.37658e-014 1.98785e-015
lhumerus -42.3361 16.4082 80.1742
lradius 23.8761
lwrist -40.4022
lhand -33.0103 3.55811
lfingers 7.12502
lthumb -6.22418 33.4467
rfemur -7.85865 -16.7331 21.1537
rtibia 11.1359
rfoot -10.7837 11.9007
rtoes -5.88403e-014
lfemur -10.0857 11.9909 -17.8311
ltibia 9.74127
lfoot -2.25339 -16.72
ltoes -8.26944e-014
735
root -18.8328 16.6286 5.06403 -153.79 85.7737 -163.976
lowerback -13.3936 -1.63839 -0.13635
upperback -3.98842 -1.94457 -0.572218
thorax 3.2936 -0.888352 -0.825321
lowerneck -1.77327 1.605 8.52612
upperneck 27.1368 3.86377 -5.64067
head 9.01231 2.54502 -3.03184
rclavicle 1.35174e-014 6.36111e-015
rhumerus -42.6026 -22.1497 -79.5155
rradius 18.3933
rwrist 29.2539
rhand -35.9923 3.38183
rfingers 7.12502
rthumb -9.10237 -26.4018
lclavicle 1.35174e-014 6.36111e-015
lhumerus -42.3689 16.3796 80.2129
lradius 23.8981
lwrist -40.2294
lhand -32.9354 3.61888
lfingers 7.12502
lthumb -6.15189 33.5096
rfemur -7.84265 -16.7808 21.143
rtibia 11.1813
rfoot -10.8479 11.9847
rtoes -2.38542e-015
lfemur -10.014 12.0326 -17.8311
ltibia 9.70364
lfoot -2.26587 -16.7269
ltoes 6.36111e-015
